<svg width="17" height="17" viewBox="0 0 17 17" fill="none" xmlns="http://www.w3.org/2000/svg">
<path d="M2.36557 14.4701C2.57901 14.6836 2.84581 14.7903 3.13928 14.7903C3.43276 14.7903 3.69956 14.6836 3.913 14.4701L8.18177 10.2014L12.4506 14.4701C12.664 14.6836 12.9308 14.7903 13.2243 14.7903C13.5177 14.7903 13.7845 14.6836 13.998 14.4701C14.4249 14.0433 14.4249 13.3496 13.998 12.9227L9.72921 8.65394L13.998 4.38517C14.4249 3.95829 14.4249 3.26461 13.998 2.83774C13.5711 2.41086 12.8774 2.41086 12.4506 2.83774L8.18177 7.10651L3.913 2.83774C3.48612 2.41086 2.79245 2.41086 2.36557 2.83774C1.93869 3.26461 1.93869 3.95829 2.36557 4.38517L6.63434 8.65394L2.36557 12.9227C1.93869 13.3496 1.93869 14.0433 2.36557 14.4701Z" fill="white"/>
</svg>
