<svg width="33" height="33" viewBox="0 0 33 33" fill="none" xmlns="http://www.w3.org/2000/svg">
<path d="M29.9999 15H17.7272V2.72728C17.7272 1.9091 17.1817 1.36365 16.3635 1.36365C15.5453 1.36365 14.9999 1.9091 14.9999 2.72728V15H2.72716C1.90898 15 1.36353 15.5455 1.36353 16.3636C1.36353 17.1818 1.90898 17.7273 2.72716 17.7273H14.9999V30C14.9999 30.8182 15.5453 31.3636 16.3635 31.3636C17.1817 31.3636 17.7272 30.8182 17.7272 30V17.7273H29.9999C30.8181 17.7273 31.3635 17.1818 31.3635 16.3636C31.3635 15.5455 30.8181 15 29.9999 15Z" fill="white"/>
</svg>
