<svg width="4" height="20" viewBox="0 0 4 20" fill="none" xmlns="http://www.w3.org/2000/svg">
<path d="M2.68583e-05 9.99987C2.68125e-05 11.1044 0.849925 11.9999 1.89833 11.9999C2.94673 11.9999 3.79663 11.1044 3.79663 9.99987C3.79663 8.89531 2.94673 7.99988 1.89833 7.99988C0.849926 7.99988 2.69041e-05 8.89531 2.68583e-05 9.99987Z" fill="#313A4E"/>
<path d="M2.68583e-05 2C2.68125e-05 3.10457 0.849925 4 1.89833 4C2.94673 4 3.79663 3.10457 3.79663 2C3.79663 0.89543 2.94673 -3.91404e-08 1.89833 -8.74226e-08C0.849926 -1.35705e-07 2.69041e-05 0.89543 2.68583e-05 2Z" fill="#313A4E"/>
<path d="M2.68583e-05 18C2.68125e-05 19.1046 0.849925 20 1.89833 20C2.94673 20 3.79663 19.1046 3.79663 18C3.79663 16.8954 2.94673 16 1.89833 16C0.849926 16 2.69041e-05 16.8954 2.68583e-05 18Z" fill="#313A4E"/>
</svg>
