<svg height="496pt" viewBox="0 -20 496 496" width="496pt" xmlns="http://www.w3.org/2000/svg"><path d="m119.839844 32h48.160156v64h-48.160156zm0 0" fill="#ccd1d9"/><path d="m251.28125 28.71875c6.230469 6.242188 6.230469 16.402344 0 22.640625-3.128906 3.121094-7.203125 4.640625-11.28125 4.640625s-8.230469-1.519531-11.359375-4.640625l-19.28125-19.359375h-129.359375c-8.871094 0-16-7.121094-16-16 0-8.800781 7.128906-16 16-16h136c1.039062 0 2.078125.160156 3.128906.320312.480469.160157.871094.320313 1.359375.480469.550781.167969 1.121094.238281 1.589844.488281.5625.238282 1.050781.480469 1.601563.800782.398437.238281.808593.398437 1.191406.636718.890625.640626 1.6875 1.28125 2.410156 2zm0 0" fill="#e6e9ed"/><path d="m216 128.015625c0 4.398437-3.601562 8-8 8h-128c-4.398438 0-8-3.601563-8-8v-32.023437c0-4.398438 3.601562-8 8-8h31.839844 16 32.160156 16 32c4.398438 0 8 3.601562 8 8zm0 0" fill="#e6e9ed"/><path d="m496 120-24 256.078125h-128l-24-256.078125zm-48 128.078125c0-22.078125-17.921875-40-40-40-22.160156 0-40 17.921875-40 40 0 22.082031 17.839844 40 40 40 22.078125 0 40-17.917969 40-40zm0 0" fill="#48cfad"/><path d="m479.992188 120-24 256.078125h16.007812l24-256.078125zm0 0" fill="#37bc9b"/><path d="m344 376.078125v48c0 17.683594 14.320312 32 32 32h64c17.679688 0 32-14.316406 32-32v-48zm0 0" fill="#e6e9ed"/><path d="m455.992188 376.078125v48c0 17.683594-14.320313 32-32 32h16.007812c17.679688 0 32-14.316406 32-32v-48zm0 0" fill="#ccd1d9"/><path d="m408 232.078125c8.800781 0 16 7.128906 16 16 0 8.808594-7.199219 16-16 16-8.878906 0-16-7.191406-16-16 0-8.871094 7.121094-16 16-16zm0 0" fill="#48cfad"/><path d="m424 248.078125c0-8.871094-7.199219-16-16-16-8.878906 0-16 7.128906-16 16 0 8.808594 7.121094 16 16 16 8.800781 0 16-7.199219 16-16zm-16-40c22.078125 0 40 17.921875 40 40 0 22.082031-17.921875 40-40 40-22.160156 0-40-17.917969-40-40 0-22.078125 17.839844-40 40-40zm0 0" fill="#e6e9ed"/><path d="m288 152v272.078125c0 17.601563-14.398438 32-32 32h-224c-17.601562 0-32-14.398437-32-32v-272.078125c0-17.601562 14.398438-32 32-32h224c17.601562 0 32 14.398438 32 32zm-72 104c0-39.761719-32.230469-72-72-72s-72 32.238281-72 72 32.230469 72 72 72 72-32.238281 72-72zm0 0" fill="#48cfad"/><path d="m256 120h-24.015625c17.609375 0 32 14.398438 32 32v272.078125c0 17.601563-14.390625 32-32 32h24.015625c17.601562 0 32-14.398437 32-32v-272.078125c0-17.601562-14.398438-32-32-32zm0 0" fill="#37bc9b"/><path d="m144 184c39.769531 0 72 32.238281 72 72s-32.230469 72-72 72-72-32.238281-72-72 32.230469-72 72-72zm40 72c0-22.078125-18-40-40-40-22.078125 0-40 17.921875-40 40s17.921875 40 40 40c22 0 40-17.921875 40-40zm0 0" fill="#e6e9ed"/><path d="m144 216c22 0 40 17.921875 40 40s-18 40-40 40c-22.078125 0-40-17.921875-40-40s17.921875-40 40-40zm0 0" fill="#48cfad"/><path d="m216.015625 368.121094h-144c-4.421875 0-8-3.578125-8-8 0-4.425782 3.578125-8 8-8h144c4.425781 0 8 3.574218 8 8 0 4.421875-3.574219 8-8 8zm0 0" fill="#37bc9b"/><path d="m184 392.144531h-79.96875c-4.421875 0-8-3.578125-8-8 0-4.425781 3.578125-8 8-8h79.96875c4.425781 0 8 3.574219 8 8 0 4.421875-3.574219 8-8 8zm0 0" fill="#37bc9b"/><path d="m344 400.054688h111.992188v16h-111.992188zm0 0" fill="#ccd1d9"/><path d="m455.992188 400.054688h16.007812v16h-16.007812zm0 0" fill="#aab2bd"/><path d="m496 104.078125c0-4.398437-3.601562-8-8-8h-160c-4.398438 0-8 3.601563-8 8v15.929687h176zm0 0" fill="#37bc9b"/><path d="m488 96.078125h-8.007812v23.921875h16.007812v-15.921875c0-4.398437-3.601562-8-8-8zm0 0" fill="#31af8b"/></svg>