<svg enable-background="new 0 0 512.012 512.012" height="512" viewBox="0 0 512.012 512.012" width="512" xmlns="http://www.w3.org/2000/svg"><g><g><path d="m454.006 512.006h-396c-8.284 0-15-6.716-15-15v-368c0-5.66 3.186-10.838 8.237-13.389l198-100c4.254-2.147 9.271-2.147 13.525 0l198 100c5.052 2.551 8.237 7.729 8.237 13.389v368c.001 8.284-6.715 15-14.999 15z" fill="#fdbf00"/></g><path d="m460.769 115.617-198-100c-2.127-1.074-4.445-1.611-6.763-1.611v498h198c8.284 0 15-6.716 15-15v-368c0-5.66-3.186-10.838-8.237-13.389z" fill="#ff8856"/><g><path d="m496.995 162.009c-2.436 0-4.905-.594-7.192-1.847l-233.797-128.053-233.797 128.053c-7.27 3.98-16.383 1.314-20.362-5.95-3.979-7.266-1.315-16.382 5.95-20.361l241.003-132.001c4.49-2.459 9.922-2.459 14.412 0l241.003 132c7.266 3.979 9.93 13.096 5.95 20.361-2.727 4.98-7.867 7.797-13.17 7.798z" fill="#ff8856"/></g><g><path d="m366.006 508.006h-220c-8.284 0-15-6.716-15-15v-83.384c0-68.689 56.075-124.573 125-124.573s125 55.883 125 124.573v83.384c0 8.284-6.716 15-15 15z" fill="#b34f03"/></g><path d="m256.006 285.049v222.957h110c8.284 0 15-6.716 15-15v-83.384c0-68.69-56.075-124.573-125-124.573z" fill="#a24603"/><g><path d="m490.009 512.005h-468.006c-8.284 0-15-6.716-15-15s6.716-15 15-15h468.006c8.284 0 15 6.716 15 15s-6.716 15-15 15z" fill="#bee75e"/></g><g><path d="m327.256 253.006c-16.057 0-30.017-10.093-35.282-24.75h-71.936c-5.266 14.657-19.226 24.75-35.282 24.75-20.678 0-37.5-16.822-37.5-37.5 0-9.212 3.383-17.98 9.33-24.75-5.947-6.77-9.33-15.538-9.33-24.75 0-20.678 16.822-37.5 37.5-37.5 16.057 0 30.017 10.093 35.282 24.75h71.936c5.266-14.657 19.226-24.75 35.282-24.75 20.678 0 37.5 16.822 37.5 37.5 0 9.212-3.383 17.98-9.33 24.75 5.947 6.77 9.33 15.538 9.33 24.75 0 20.678-16.822 37.5-37.5 37.5z" fill="#fff4f4"/></g><path d="m504.215 133.85-241.003-132c-2.245-1.229-4.726-1.844-7.206-1.844v32.103l233.797 128.053c2.287 1.253 4.757 1.847 7.192 1.847 5.303 0 10.442-2.818 13.17-7.797 3.98-7.266 1.316-16.382-5.95-20.362z" fill="#ff435b"/><path d="m364.756 166.006c0-20.678-16.822-37.5-37.5-37.5-16.057 0-30.017 10.093-35.282 24.75h-35.968v75h35.968c5.266 14.657 19.226 24.75 35.282 24.75 20.678 0 37.5-16.822 37.5-37.5 0-9.212-3.383-17.98-9.33-24.75 5.947-6.77 9.33-15.538 9.33-24.75z" fill="#f6efea"/><path d="m490.009 482.006h-234.003v30h234.003c8.284 0 15-6.716 15-15s-6.716-15-15-15z" fill="#00cb75"/></g></svg>