<?xml version="1.0" encoding="iso-8859-1"?>
<!-- Generator: Adobe Illustrator 19.0.0, SVG Export Plug-In . SVG Version: 6.00 Build 0)  -->
<svg version="1.1" id="Capa_1" xmlns="http://www.w3.org/2000/svg" xmlns:xlink="http://www.w3.org/1999/xlink" x="0px" y="0px"
	 viewBox="0 0 426.667 426.667" style="enable-background:new 0 0 426.667 426.667;" xml:space="preserve">
<path style="fill:#F6C358;" d="M422.026,178.792l-39.149-89.633c-5.648-12.931-18.419-21.289-32.53-21.289H47.912
	C21.451,67.87,0,89.321,0,115.782v143.043c0,26.461,21.451,47.912,47.912,47.912H393.02c18.408,0,33.331-14.922,33.331-33.33
	v-73.907C426.351,192.374,424.878,185.323,422.026,178.792z"/>
<path style="fill:#FCD462;" d="M426.351,199.501c0-7.127-1.472-14.177-4.325-20.708l-39.149-89.633
	c-5.648-12.931-18.419-21.289-32.53-21.289H47.912C21.451,67.87,0,89.321,0,115.782v83.718H426.351z"/>
<path style="fill:#64798A;" d="M426.351,258.825H0c0,26.461,21.451,47.912,47.912,47.912H393.02
	C432.253,304.138,426.351,277.233,426.351,258.825z"/>
<path style="fill:#D5D6DB;" d="M412.727,233.245c-4.823,0-8.732,3.909-8.732,8.732v8.116c0,4.823,3.909,8.732,8.732,8.732h13.624
	v-25.58H412.727z"/>
<path style="fill:#2D93BA;" d="M306.57,109.533v69.785h87.839l-29.403-59.1c-3.257-6.547-9.939-10.686-17.251-10.686H306.57z"/>
<g>
	<rect x="177.417" y="109.534" style="fill:#DC8744;" width="98.944" height="69.786"/>
	<rect x="46.178" y="109.534" style="fill:#DC8744;" width="98.944" height="69.786"/>
</g>
<path style="fill:#27A2DB;" d="M347.755,109.533H306.57v69.785l58.436-59.1C361.749,113.672,355.067,109.533,347.755,109.533z"/>
<circle style="fill:#2F4859;" cx="110.75" cy="306.739" r="52.058"/>
<circle style="fill:#D5D6DB;" cx="110.75" cy="306.739" r="33.822"/>
<circle style="fill:#2F4859;" cx="335.787" cy="306.739" r="52.058"/>
<circle style="fill:#D5D6DB;" cx="335.787" cy="306.739" r="33.822"/>
<path style="fill:#E56353;" d="M13.624,233.245H0v25.58h13.624c4.823,0,8.732-3.91,8.732-8.732v-8.116
	C22.356,237.154,18.447,233.245,13.624,233.245z"/>
<g>
</g>
<g>
</g>
<g>
</g>
<g>
</g>
<g>
</g>
<g>
</g>
<g>
</g>
<g>
</g>
<g>
</g>
<g>
</g>
<g>
</g>
<g>
</g>
<g>
</g>
<g>
</g>
<g>
</g>
</svg>
